<?xml version="1.0" encoding="UTF-8"?>
<svg id="_レイヤー_1" data-name="レイヤー 1" xmlns="http://www.w3.org/2000/svg" viewBox="0 0 2170.67 852.84">
  <defs>
    <style>
      .cls-1 {
        fill: #fff;
      }
    </style>
  </defs>
  <path class="cls-1" d="M1443.56,417.2c-6.09,2.69-13.37.13-19.22,1.98-4.16,1.32-6.67,7.08-10.8,8.35-5.69,1.76-12.51-.62-17.95,1.2-3.67,1.23-4.17,5.27-7.06,6.62-6.97,3.24-15.81-.98-16.22,12.61-.45,14.94,8.74,10.5,16.22,13.99,3.2,1.49,3.3,5.82,8.12,6.92,4.8,1.1,46.04.84,49.33-.71,2.74-1.3,3.36-4.92,6.1-6.21,3.82-1.8,9.45-.4,13.27-3.15.63-.45,10.5-10.31,10.91-10.98,3.94-6.39.25-13.36,10.99-20.46,4.61-3.05,8.77-1.32,12.82-3.59,2.99-1.68,3.86-6.63,7.39-7.66,11.82,1.54,64.16-3.51,70.95.98,2.25,1.49,2.93,5.16,5.63,6.68,3.33,1.87,7.32.93,10.36,1.95,3.3,1.1,5.32,6.06,7.87,7.17,3.61,1.57,7.54.28,11.92,3.13,2.57,1.67,3.3,4.33,5.41,5.53,3.46,1.97,8.03.88,11.33,2.35,3.58,1.58,12.54,13.47,16.02,15.43,3.47,1.96,8.03.88,11.33,2.34,2.35,1.04,4.59,5.76,6.91,6.77,2.91,1.27,6.38.61,10.11,2.21,4.29,1.83,4.85,5.44,8.18,6.87,3.32,1.43,7.33.59,10.38,1.93,2.82,1.25,5.35,6.95,9.54,8.24,6.07,1.87,41.95,1.34,50.06.66,4.32-.36,8.14-.51,10.53-4.52,8.55-14.37-6.91-21.71-15.44-30.32-4.57-4.61-18.69-21.45-22.64-23.88-3.39-2.08-7.48-1.02-11.15-2.53-3.51-1.45-5.92-6.73-9.84-7.94-3.2-.99-6.74,0-9.65-1.29-3.35-1.49-3.39-7.25-10.59-8.56-17.95-3.25-42.03,2.23-60.65-.92-6.73-4.01-18.44-17.7-4.6-19.83,16.67-2.57,38.91,1.94,56.02-.07,11.13-1.31,7.05-7.86,9.9-14.72,1.83-4.41,6.96-5.32,8.22-12.29,1.89-10.43-2.23-34.94,1.32-42.44,1.21-2.56,4.45-3.25,6.15-6.15,2.33-3.97,1.7-9.44,3.43-12.98,1.37-2.8,4.95-3.41,6.2-6.11,1.98-4.24.13-7.43,3.73-12.68,6.38-9.31,14.97-11.28,25.4-7.61.7,1,.52,2.31.66,3.44,2.77,22.46-3.11,51.46.06,73.78.93,6.56,11.81,19.2,18.32,19.98,3.65.44,14.42.58,17.78-.06,4.24-.8,6.03-6.29,11.01-8.14,8.4-3.11,18.59.39,25.67-1.68,3.16-.93,5.61-6.72,8.77-7.64,3.43-1.01,25.45-.88,29.87-.34,4.85.59,22.58,17.98,23.65,21.55.78,2.62.43,5.47-1.68,7.36-2.84,2.22-7.77.53-11.45,2.22-2.87,1.32-3.39,5.39-7.06,6.62-6.74,2.26-13.56-1.54-20.95,3.3-1.5.98-1.77,3.38-4.06,4.48-10.97,5.28-31.32-.55-39.34,3.09-1.7.77-12.46,12.23-13.09,14.26-5.14,16.49,13.53,23.13,21.59,34.63,9.89-1.87,14.66,8.29,20.12,9.97,3.21.99,6.67,0,9.64,1.3,2.49,1.09,4.79,6.32,7.82,7.22,5.57,1.65,12.04-1.23,18.56,1.96,3.21,1.57,5.11,5.6,8.18,6.87,3.71,1.54,7.44.33,10.59,1.72,2.64,1.17,3.61,5.67,6.43,7.25,3.5,1.96,8.02.89,11.33,2.35,2.35,1.04,4.59,5.76,6.91,6.77,2.91,1.27,6.38.61,10.11,2.21,4.29,1.83,4.85,5.44,8.18,6.87,3.61,1.55,7.59.44,11.18,2.5,1.8,1.04,18.65,17.61,19.16,19.13,1.26,3.74,1.33,23.32-1.1,25.75-1.32.99-2.93,1.34-4.54,1.56-8.77,1.23-44.08,1.28-50.38-2.83-8.85-5.77-7.54-3.7-15.86-7.33-2.77-1.21-5.34-6.96-9.53-8.25-5.47-1.69-11.98.55-16.89-.89-3.17-.93-5.6-6.71-8.77-7.64-4.93-1.45-11.82.74-17.16-.62-4.13-1.06-5.33-5.06-7.53-6.51-5.5-3.62-15.96-3.54-22.27-2.05-5.57,1.32-6.72,6.71-10.96,8.16-3.32,1.14-6.59.18-9.5,1.44-2.46,1.07-4.8,6.34-7.82,7.22-4.65,1.36-32.49.9-35.88-1.86-9.01-7.32-5.9-3.42-14.79-7.1-3.3-1.36-5.6-6.16-8.9-7.52-3.71-1.54-7.4-.33-10.58-1.73-2.27-1-4.63-5.83-6.88-6.8-2.78-1.21-5.74-.28-8.53-1.04-4.23-1.15-5.49-5.27-8.25-6.93-5.68-3.4-31.8-3.96-36.19.78-6.12,6.6-.66,24.22-3.8,31.08-.97,2.11-13.99,15.63-16.57,17.56-2.31,1.72-3.6,2.63-6.6,3.04-6.05.82-41.21.8-45.96-.67-3.95-1.22-6.33-6.48-9.85-7.93-3.66-1.51-7.77-.45-11.15-2.53-3.37-2.07-10.24-13.68-14.52-15.57-3.45-1.52-7.08-.04-11.44-2.24-4.8-2.42-11.98-13.82-15.92-15.54-2.77-1.21-5.74-.27-8.53-1.04-6.2-1.69-5.54-8.28-16.69-9.31-11.56-1.06-46.61-1.54-57.2.4-6.5,1.19-8.02,7.64-12.97,8.91-5.07,1.29-11.17-.56-16.04.37-4.5.86-6.44,6.88-9.89,7.89-4.91,1.44-11.42-.8-16.89.89-4.37,1.35-6.78,7.53-11.84,8.67-7.38,1.67-18.75-1.38-25.42.57-3.44,1.01-5.39,7.04-9.89,7.89-10.14,1.93-29.74-3.28-37.94,2.72-3.02,2.21-2.25,5.79-8.62,6.8-15.17,2.39-62.61-3.87-72.08,2.79-1.7,1.2-2.24,4.4-5.03,4.91-77.18,3.24-155.56,3.24-232.75,0-10.33-14.26-30.87-4-44.07-7.9-3.36-.99-3.94-5.21-6.83-6.99-4.28-2.63-8.4-1.49-11.9-3.02-1.11-.48-10.34-10.01-10.69-11.19-.7-2.37-.71-9.48-.24-11.99,1.24-6.49,7.26-3.95,11.93-5.85,5.2-2.12,12.52-14.17,16.78-16.05,3.18-1.4,6.87-.19,10.58-1.73,3.44-1.42,6.08-6.75,8.58-7.83,2.8-1.22,6.04-.45,9.21-1.74,3.5-1.42,5.77-6.57,9.85-7.93,2.99-1,6.4-.24,9.33-1.61,2.75-1.28,3.35-4.91,6.1-6.21,5.34-2.53,13.01.21,18.91-1.61,4.13-1.27,6.67-7.08,10.8-8.35,7.27-2.24,17.64.8,25.09-.9,4.92-1.12,5.1-5.99,9.09-7.32,7.96-2.66,23.36,2.15,30.08-2.75,1.66-1.21,1.96-3.57,4.56-5.01,10.73-5.92,34.28.09,46.55-2.69,5.07-1.15,5.08-6.48,10.15-7.63,7.17-1.63,16.87,1.04,24.05-.58,5.31-1.2,8.03-7.97,11.51-9,7.73-2.29,21.86,2.47,29.02-2.44,2.63-1.8,2.93-5.36,8.29-6.76,5.58-1.46,11.54.41,16.54-1.25,1.64-.54,13.77-12.52,14.34-14.37,2.63-8.48-.19-16.79-9.61-17.88-9.98-1.16-39.43-1.26-49.18.12-7.68,1.09-8.93,7.82-14.12,9.14-7.32,1.86-17.86-1.08-25.36.63-4.92,1.12-5.1,5.99-9.09,7.32-5.45,1.82-12.26-.55-17.95,1.2-4.13,1.27-6.67,7.08-10.8,8.35-5.47,1.69-11.98-.55-16.89.89-3.17.93-5.6,6.71-8.77,7.64-4.91,1.44-11.42-.8-16.89.89-4.3,1.33-7.23,7.72-10.47,8.68-8.34,2.47-24.3-1.53-33.63.57-5.25,1.18-7.64,7.81-12.89,9-9.09,2.05-31.11-2.56-37.24,2.42-1.35,1.1-1.95,3.47-3.65,4.56-6.4,4.08-27.54-.22-36.5,1.8-5.93,1.34-6.73,7.89-16.86,9.13-10.44,1.28-45.33-2.35-51.05,2.29-2.63,2.13-3.45,6.77-8.95,6.09l-84.24-.62c-2.18-1.53-1.58-6.76-.57-8.95.52-1.14,16.56-17.24,17.67-17.88,3.77-2.17,8.39-.82,12.13-2.92,3.01-1.69,3.81-6.58,7.39-7.65,4-1.2,6.49.57,11.28-2.4,9.38-5.81,20.53-20.5,2.14-22.54-16-1.78-59.42-1.87-75.3,0-8.19.97-9.35,7.97-15.31,9.31-7.18,1.62-16.88-1.05-24.05.58-4.92,1.12-5.1,5.99-9.09,7.32-5.46,1.83-12.3-.58-17.94,1.21-4.58,1.44-5.14,6.44-8.45,7.96-3.13,1.44-6.88.62-10.29,2.03s-5.59,6.15-8.9,7.52c-3.66,1.51-7.8.45-11.15,2.53-2.01,1.25-2.65,4.5-5.23,5.71-2.84,1.32-6.8.93-10.3,2.07-4.87,1.58-6,6.4-9.97,7.75-3.32,1.13-6.6.18-9.5,1.44-2.25.98-4.58,5.79-6.89,6.79-9.97,4.35-6.36-.19-16.3,8.28-8.33,7.1-8.61,7.09-18.21,10.56-10.6,3.84-20.67,22.9-28.42,26.28-3.65,1.59-8.54.32-12.63,3.41-6.18,4.67-17.78,20.07-23.75,23.12-4.13,2.11-8.47.87-12.01,3.04-6.27,3.85-16.48,20.73-23.56,24.31-4.36,2.2-7.99.72-11.44,2.24-3.64,1.61-10.68,12.21-15.12,14.97-4.66,2.89-9.04,1.29-12.8,3.61-3.56,2.2-10.79,13.74-15.93,15.53-3.56,1.24-7.22.22-10.57,1.74-3.1,1.41-3.81,5.98-7.49,7.56-3.35,1.43-7.17.56-10.3,2.01-2.71,1.26-3.38,4.96-6.09,6.22-3.1,1.45-6.88.61-10.29,2.02-3.3,1.37-5.6,6.15-8.9,7.52-3.41,1.41-7.19.58-10.29,2.02-2.58,1.21-3.23,4.46-5.23,5.71-3.68,2.29-9.11,1.02-13.84,3.81-2.53,1.49-3.71,5.22-7.3,6.52-5.73,2.06-12.13-.57-17.8,1.34-3.55,1.19-3.92,4.64-6.21,6.1-3.22,2.05-44.42,2.4-50.54,1.58-3.69-.49-13.97-9.67-14.33-13.11-.61-5.78,5.94-8.41,7.95-12.56,1.8-3.72,1.14-8.65,3.18-11.87,2.26-3.58,26.37-27.11,29.56-27.88,2.82-.68,5.79.24,8.58-.99,3.99-1.76,11.1-13.08,15.92-15.54,4.13-2.11,8.49-.87,12.01-3.04,3.04-1.88,11.79-14.32,14.53-15.56,2.96-1.35,7.06-.5,10.39-1.92s3.89-5.01,8.18-6.86c3.99-1.72,7.95-1,11.19-2.49,2.49-1.14,10.06-11.36,13.51-13.85,4.73-3.41,8.8-1.93,12.77-3.65,2.55-1.11,4.57-6.07,7.87-7.17,3.04-1.02,7.06-.08,10.37-1.94,3.48-1.97,12.44-13.85,16.02-15.43,3.56-1.58,8.51-.23,12.18-2.87,9.12-6.55,21.39-26.3,31.63-32.66,5-3.11,8.8-1.02,13.01-3.4,8.91-5.04,31.14-32.87,40.2-41.86,4.87-4.83,37.09-36.05,39.68-36.91,3.29-1.1,6.91-.11,10.19-2.12,7.81-4.8,22.13-26.58,31.74-32.54,3.5-2.18,7.88-.93,12.01-3.04,4.85-2.48,11.85-13.72,15.93-15.52,3.04-1.35,7.05-.51,10.38-1.93,3.32-1.42,3.89-5.01,8.18-6.86,3.99-1.72,7.96-1,11.19-2.49,2.96-1.36,3.68-5.41,6.61-7.07,3.7-2.1,7.77-.91,11.18-2.5,2.58-1.21,3.23-4.46,5.23-5.71,3.34-2.09,7.49-1.02,11.15-2.53,3.52-1.46,5.9-6.71,9.85-7.93,5.69-1.76,12.51.62,17.95-1.2,3.66-1.23,4.15-5.23,7.07-6.61,5.52-2.61,13.53.51,19.66-2.22,3.11-1.39,3.32-3.81,5.52-5.42,8.56-6.27,21.72-.53,30.68-3.52,3.99-1.33,4.17-6.2,9.09-7.32,9.59-2.18,24,1.59,33.62-.58,5.25-1.18,7.64-7.81,12.89-9l138.53.42c7.02,13.16,20.24,5.98,28.44,9.86,1.09.52,16.13,15.24,17.32,16.87.83,1.14,1.65,2.16,1.85,3.62-.68,11.57,1.97,26.82.21,37.92-1.36,8.55-15.07,11.65-7.33,25.27,1.36,2.39,11.72,12.35,14.18,13.17,2.99,1,6.4.24,9.33,1.61,2.57,1.2,3.21,4.41,5.24,5.7,2.99,1.9,60.73,2.98,69.69,2.94,3.91-.01,7.22-1.43,10.82-1.49,11.33-.19,31.15,1.91,41.06.03,4.31-.82,6.19-6.74,11.26-7.89,8.06-1.81,19.56,1.94,26.9-1.83,2.45-1.26,37.74-36.51,38.99-38.97,2-3.91,1.02-7.54,2.55-11.12,1.58-3.68,6.12-4.36,7.56-7.49,1.36-2.95.62-6.33,1.62-9.32,1.28-3.85,5.63-5.69,7.29-9.13,1.97-4.09.99-8.72,3.81-12.6,6.5-8.95,10.64-6.27,18.04-9.32,3.59-1.48,6.47-7.36,9.52-8.26,2.52-.74,11.95-.74,14.48,0,3.66,1.07,4.31,5.93,7.39,7.66,3.42,1.93,10.65.89,12.12,2.93,1.18,1.64.97,8.49,3.04,12.01,1.71,2.91,4.98,3.62,6.16,6.15,1.45,3.1.61,6.88,2.02,10.28,1.26,3.05,5.47,5.02,6.47,7.21,1.25,2.74,1.37,38.61.42,42.76-1.1,4.82-5.46,4.94-6.92,8.12-.29,15.54-16.39,24.92-26.03,35.63-3.56,8.16-4.96,26.9,6.5,28.4,6.99.91,38.81,1.11,45.18-.1,5.96-1.13,10.27-14.01,22.6-6.79.79,1.13-10.75,14.08-.72,23.27,4.07,3.73,22.82,3.44,28.79,2.72,7.75-.93,7.25-5.35,12.27-9.61,4.04-3.43,8.58-1.33,5.87-9.94-3.23-10.27-30.14-1.47-39.4-7.11-2.49-1.52-.29-2.14.71-3.44,8.71-11.3,14.82-4.33,24.34-7.12,3.44-1.01,5.4-7.04,9.89-7.89,3.32-.63,21.35-.47,23.88.68,2.32,1.05,4.59,5.78,6.9,6.78,3.83,1.66,9.22-.19,12.28,4.13v25.3ZM1532.08,428.43c-9.01,2.08-8.07,22.41-4.34,28.36.76,1.21,9.85,10.54,10.8,11.08,3.19,1.82,6.5,1.1,9.98,2.33,4.9,1.75,5.25,5.21,8.15,6.89,4.66,2.7,31.45,2.88,35.29-1.12,3.94-4.1,4.14-16.59,2.85-21.96-1.12-4.64-12.27-16.3-16.8-17.39-2.82-.68-5.78.24-8.58-.99-2.88-1.26-4.55-6.63-8.94-7.47-3.95-.75-24.55-.63-28.4.26ZM1212.75,457.21c-3.1,3.46-1.77,9.43,2.39,11.24,4.39,1.92,14.8.65,20.56,2.69,4.9,1.73,3.64,7.82,11.55,6.27,3.51-.69,3.36-3.92,5.61-5.38,8.06-5.22,38.92-.25,48.52-3.46,3.67-1.23,4.17-5.27,7.06-6.62,2.93-1.36,6.33-.62,9.33-1.61,9.95-3.31,9.62-22.07-2.2-23.91-9.16-1.43-39.59-1.2-49.19-.12-9.26,1.05-9.83,7.86-15.36,9.27-5.27,1.34-11.67-.81-16.84.93-3.67,1.23-4.17,5.28-7.06,6.62-3.62,1.68-11.37.74-14.37,4.08Z"/>
  <g>
    <path class="cls-1" d="M1914,470.83v-27.54h-62.34v-12.56h-24.64v-14.36h72.97v-86.15h-119.36v-82.63h-102.09v90.85h-26.09v19.5h-65.72v24.95h-116.81v-38.66h-119.84v-120.81h-164.43v81.42h-27.54v19.57h-111.97v-21.02h-25.37v-55.09h-18.85v-63.06h-495.44v172.68h-58.95v55.4h-21.26v20.29h-61.85v52.19h-57.02v41.56h-120.8v142.2h200.19v-57.02h95.68v-57.02h50.25v-51.22h40.59v-14.5h46.39v-44.46h43.49v-15.95h46.25v43.01h143.03v102.44h498.82v-32.86h59.44v-20.78h62.2v13.05h25.13v41.56h162.25v-40.83h31.76v22.23h153.18v20.78h138.82v-107.17h-70.07ZM649.38,194.34v33.12h-5.32v-33.12h5.32ZM634.09,224.62c-1.5,2.44-4.19,3.53-8.7,3.53-4.66-.19-8.09-1.58-10.51-4.24-2.42-2.67-3.6-5.56-3.6-8.85,0-3.04,1.13-5.86,3.45-8.63,2.31-2.76,5.86-4.23,10.53-4.37.07,0,.14,0,.21,0,3.68,0,6.59,1.24,8.66,3.69l.96,1.13v-4.04h5.21v24.72h-5.21v-4.58l-1,1.64ZM597.73,206.99v-4.15h4.38v-8.49h5.43v8.49h4.38v4.15h-4.38v20.47h-5.43v-20.47h-4.38ZM590.8,199.03v-4.69h5.32v4.69h-5.32ZM596.11,202.84v24.63h-5.32v-24.63h5.32ZM550.55,199.03v-4.69h5.32v4.69h-5.32ZM555.87,202.84v24.63h-5.32v-24.63h5.32ZM548.08,210.98c.05,3.81-1.21,7.5-3.74,10.97-2.52,3.42-6.94,5.27-13.12,5.51h-13.65v-33.12h13.43c6.34.24,10.82,2.06,13.29,5.41,2.6,3.4,3.84,7.07,3.78,11.23ZM1980.07,574h-130.82v-20.78h-153.18v-22.23h-39.76v40.83h-154.25v-41.56h-25.13v-13.05h-70.2v20.78h-59.44v32.86h-490.82v-102.44h-143.03v-43.01h-54.25v15.95h-43.49v44.46h-46.39v14.5h-40.59v51.22h-50.25v57.02h-95.68v57.02h-192.19v-134.2h120.8v-41.56h57.02v-52.19h61.85v-20.29h21.26v-55.4h58.95v-124.92h57.38c-1.46-.42-2.74-1.04-3.82-1.87-1.91-1.44-3.28-3.13-4.08-5.04h5.2c1.06,1.72,3.77,3.53,7.6,3.69,3.29-.15,5.72-1.19,7.22-3.06,1.55-1.88,2.31-4.03,2.26-6.37l-.03-1.19-.88.8c-2.65,2.41-5.76,3.55-9.75,3.6-4.61-.19-7.96-1.6-10.22-4.31-2.25-2.76-3.35-5.47-3.35-8.3-.05-3.01,1.04-5.81,3.34-8.57,2.32-2.76,5.77-4.18,10.53-4.32,3.58-.05,6.93,1.27,9.43,3.73l.92.9v-3.85h4.79v22.31c0,3.27-1.2,6.16-3.58,8.6-1.52,1.56-3.49,2.64-5.96,3.27h153.09v-47.77h267.33v63.06h18.85v55.09h25.37v21.02h119.97v-19.57h27.54v-81.42h156.43v120.81h119.84v38.66h124.81v-24.95h65.72v-19.5h26.09v-90.85h94.09v82.63h119.36v78.15h-72.97v22.36h24.64v12.56h62.34v27.54h70.07v99.17Z"/>
    <path class="cls-1" d="M625.56,206.89c-2.68.1-4.82.99-6.35,2.64-1.52,1.58-2.29,3.33-2.29,5.18,0,1.95.72,3.86,2.14,5.67,1.4,1.78,3.62,2.77,6.64,2.92,2.79-.1,4.88-.99,6.36-2.7,1.51-1.68,2.28-3.61,2.28-5.75,0-1.84-.74-3.56-2.28-5.26-1.52-1.69-3.7-2.6-6.51-2.7Z"/>
    <path class="cls-1" d="M538.73,202.61c-2-2.27-5.24-3.48-9.64-3.58h-5.35v23.74h6.43c4.52-.15,7.65-1.46,9.29-3.88,1.59-2.35,2.34-5.07,2.23-8.06.06-3.21-.94-5.98-2.96-8.23Z"/>
    <path class="cls-1" d="M572.4,206.26c-2.9.16-5.14,1.1-6.67,2.8-1.52,1.69-2.32,3.55-2.38,5.55,0,1.99.76,3.91,2.26,5.74,1.53,1.81,3.86,2.8,6.95,2.96,2.79-.1,5.02-1.02,6.62-2.74,1.56-1.67,2.38-3.6,2.44-5.76,0-1.87-.78-3.73-2.32-5.54-1.54-1.87-3.78-2.85-6.9-3.01Z"/>
  </g>
</svg>